<svg width="1082" height="764" fill="none" xmlns="http://www.w3.org/2000/svg"><circle cx="756.599" cy="325.401" r="325.401" fill="url(#paint0_linear)" fill-opacity=".3"/><circle cx="177.127" cy="563.442" r="177.127" fill="url(#paint1_linear)" fill-opacity=".3"/><path fill-rule="evenodd" clip-rule="evenodd" d="M1053.68 168.144H739.918v215.894h200.541v44.138h103.631c5.3 0 9.59-4.296 9.59-9.596V168.144z" fill="url(#paint2_linear)"/><path d="M739.918 168.144h313.762v27.827H739.918v-27.827z" fill="#5620A5"/><path fill-rule="evenodd" clip-rule="evenodd" d="M804.207 259.299c-23.317 0-42.219 18.902-42.219 42.219v246.598h99.791c23.317 0 42.219-18.902 42.219-42.219v-202.46c0-33.775 27.347-44.138 42.219-44.138h-142.01z" fill="#FFECFF"/><path d="M863.177 326.466H679.079v136.252h184.098V326.466z" fill="url(#paint3_linear)"/><mask id="a" maskUnits="userSpaceOnUse" x="679" y="326" width="185" height="137"><path d="M863.698 326.466H679.601v136.252h184.097V326.466z" fill="#C4C4C4"/></mask><g mask="url(#a)"><path d="M811.694 339.727c0 18.813 15.25 34.063 34.063 34.063 18.812 0 34.063-15.25 34.063-34.063 0-18.812-15.251-34.063-34.063-34.063-18.813 0-34.063 15.251-34.063 34.063z" fill="#FFC943"/><path d="M812.301 417.205c25.841-24.013 52.312 34.21 62.317 66.324l-221.541 17.153v-43.454c.572-4.669 6.175-21.784 24.013-52.887 22.297-38.88 56.6 1.143 75.752 35.163 19.153 34.019 27.157 7.718 59.459-22.299z" fill="url(#paint4_linear)"/><path d="M742.006 338.991c-13.105 1.04-34.236 19.675-43.164 28.863h87.888c-.52-17.682-18.721-7.801-33.803-5.201-15.081 2.601 5.461-24.962-10.921-23.662z" fill="#EDEDED"/></g><path d="M903.998 300.559c0-22.787 18.472-41.26 41.259-41.26s41.26 18.473 41.26 41.26v127.617h-82.519V300.559z" fill="#FFE1FF"/><path fill-rule="evenodd" clip-rule="evenodd" d="M739.919 225.716c-30.206 0-54.693 24.487-54.693 54.693v267.707h152.085c-14.868 0-42.683-10.356-42.699-44.108V280.409c0-30.206-24.487-54.693-54.693-54.693z" fill="#FFE1FF"/><path fill-rule="evenodd" clip-rule="evenodd" d="M548.013 225.716c-23.317 0-42.22 18.902-42.22 42.219v362.701h120.901c39.215 0 71.005-31.79 71.005-71.005V269.854c0-33.775 31.664-44.138 46.537-44.138H548.013z" fill="#FFECFF"/><g opacity=".4" fill-rule="evenodd" clip-rule="evenodd" fill="#5620A5"><path d="M645.884 270.814h-95.953v-.96h95.953v.96zm-30.705 95.952h-95.952v-.959h95.952v.959zm4.798-71.964h-70.046v-.96h70.046v.96zm-30.705 95.953h-70.045v-.96h70.045v.96zm43.178-70.046h-82.519v-.959h82.519v.959zm-30.704 95.952h-82.519v-.959h82.519v.959z"/></g><path d="M452.191 444.488h184.097V580.74H452.191V444.488z" fill="url(#paint5_linear)"/><mask id="b" maskUnits="userSpaceOnUse" x="451" y="444" width="185" height="137"><path d="M451.672 444.488h184.097v136.253H451.672V444.488z" fill="#C4C4C4"/></mask><g mask="url(#b)"><path d="M503.678 457.749c0 18.813-15.251 34.063-34.064 34.063-18.812 0-34.063-15.25-34.063-34.063 0-18.812 15.251-34.063 34.063-34.063 18.813 0 34.064 15.251 34.064 34.063z" fill="url(#paint6_linear)"/><path d="M503.069 535.228c-25.842-24.014-52.312 34.21-62.318 66.323l221.541 17.153V575.25c-.572-4.669-6.175-21.783-24.012-52.887-22.297-38.879-56.6 1.144-75.753 35.163-19.152 34.019-27.156 7.719-59.458-22.298z" fill="url(#paint7_linear)"/><path d="M573.364 457.013c13.105 1.04 34.236 19.676 43.164 28.863H528.64c.52-17.682 18.721-7.801 33.803-5.2 15.081 2.6-5.461-24.963 10.921-23.663z" fill="#FBA7FB"/></g><path fill-rule="evenodd" clip-rule="evenodd" d="M548.141 225.697c-23.274 0-42.141 18.906-42.141 42.227v362.773h120.676c39.142 0 70.873-30.767 70.873-69.989V269.844c0-33.782 31.606-44.147 46.451-44.147H548.141z" fill="url(#paint8_linear)"/><path fill-rule="evenodd" clip-rule="evenodd" d="M549.933 137.439H111.43v421.232c0 39.745 32.219 71.965 71.964 71.965h441.382v-.007l-.306.004c-.217.002-.436.003-.654.003-40.804 0-73.883-33.079-73.883-73.884V137.439z" fill="url(#paint9_linear)"/><path opacity=".4" fill-rule="evenodd" clip-rule="evenodd" d="M501.956 512.614H154.608v-1.919h347.348v1.919z" fill="#5620A5"/><path fill-rule="evenodd" clip-rule="evenodd" d="M353.23 395.552H154.608v-1.919H353.23v1.919z" fill="#5620A5" fill-opacity=".4"/><path opacity=".4" fill-rule="evenodd" clip-rule="evenodd" d="M429.992 547.157H154.608v-1.919h275.384v1.919z" fill="#5620A5"/><path fill-rule="evenodd" clip-rule="evenodd" d="M312.93 430.095H154.608v-1.919H312.93v1.919z" fill="#5620A5" fill-opacity=".4"/><path opacity=".4" fill-rule="evenodd" clip-rule="evenodd" d="M463.575 580.74H154.608v-1.919h308.967v1.919z" fill="#5620A5"/><path fill-rule="evenodd" clip-rule="evenodd" d="M331.161 463.678H154.608v-1.919h176.553v1.919z" fill="#5620A5" fill-opacity=".4"/><path d="M476.037 431.541c0 27.817-22.551 50.368-50.369 50.368s-50.369-22.551-50.369-50.368c0-27.818 22.551-50.369 50.369-50.369s50.369 22.551 50.369 50.369z" fill="url(#paint10_linear)"/><path fill-rule="evenodd" clip-rule="evenodd" d="M504.202 431.541h-78.533v-71.037a71.4 71.4 0 018.054-.455c38.928 0 70.486 31.558 70.486 70.486 0 .336-.003.671-.007 1.006z" fill="url(#paint11_linear)"/><path fill-rule="evenodd" clip-rule="evenodd" d="M505.795 325.986H154.608v-.959h351.187v.959zm0-34.543H154.608v-.96h351.187v.96zm0-34.543H154.608v-.959h351.187v.959zm-.001-34.543H154.608v-.959h351.186v.959z" fill="#5620A5" fill-opacity=".2"/><path fill-rule="evenodd" clip-rule="evenodd" d="M559.255 125.285c-22.708 41.7-50.604 89.339-71.384 114.275-10.444 12.533-19.505 17.64-27.781 17.451-8.243-.188-14.941-5.626-20.668-12.177-2.892-3.308-5.624-7.004-8.248-10.647-.53-.736-1.055-1.469-1.576-2.196-2.077-2.899-4.09-5.71-6.113-8.282-2.53-3.219-4.992-5.956-7.471-7.916-2.475-1.957-4.843-3.043-7.207-3.173-2.285-.125-4.556.748-6.908 2.65-2.373 1.918-4.717 4.798-7.062 8.441-4.524 7.024-8.791 16.452-13.197 26.189l-.512 1.132c-4.549 10.046-9.259 20.325-14.476 28.085-5.14 7.645-11.22 13.531-18.711 13.531-7.379 0-13.956-5.507-19.729-12.552-5.847-7.135-11.326-16.432-16.402-25.043l-.017-.028c-5.145-8.728-9.825-16.654-14.168-21.414-2.185-2.394-4.054-3.719-5.612-4.115-1.332-.339-2.7-.068-4.295 1.592-1.636 1.701-2.871 4.42-3.738 8.144-.86 3.695-1.312 8.177-1.533 13.206-.256 5.809-.202 12.11-.146 18.624.042 4.899.085 9.917-.002 14.937-.198 11.475-1.085 22.747-4.453 31.193-1.696 4.253-4.065 7.905-7.397 10.492-3.358 2.606-7.556 4.024-12.695 4.024-5.23 0-9.507-1.734-12.96-4.778-3.409-3.007-5.93-7.214-7.861-12.061-3.847-9.657-5.562-22.417-6.927-34.887-.223-2.031-.436-4.053-.647-6.056-1.1-10.436-2.144-20.336-4.142-28.058-1.189-4.597-2.668-8.207-4.55-10.637-1.822-2.351-3.975-3.554-6.736-3.554-4.92 0-9.851 2.263-14.68 6.232-4.823 3.963-9.4 9.511-13.564 15.775-8.327 12.526-14.803 27.607-18.207 37.66l-3.635-1.231c3.477-10.27 10.084-25.675 18.646-38.554 4.28-6.438 9.099-12.322 14.323-16.615 5.218-4.289 10.987-7.106 17.117-7.106 4.147 0 7.353 1.923 9.77 5.042 2.356 3.041 3.995 7.245 5.232 12.027 2.077 8.025 3.156 18.278 4.253 28.701.208 1.984.418 3.974.635 5.956 1.373 12.538 3.052 24.785 6.678 33.884 1.805 4.531 4.04 8.139 6.834 10.603 2.751 2.426 6.125 3.818 10.421 3.818 4.389 0 7.733-1.192 10.341-3.217 2.635-2.045 4.657-5.048 6.186-8.882 3.083-7.73 3.982-18.369 4.181-29.838.082-4.772.042-9.731.002-14.632-.055-6.653-.108-13.199.148-19.031.226-5.122.691-9.875 1.63-13.907.932-4.004 2.376-7.508 4.709-9.935 2.375-2.469 5.106-3.389 8.008-2.651 2.675.681 5.175 2.7 7.501 5.248 4.635 5.08 9.496 13.326 14.506 21.825l.134.227c5.121 8.688 10.452 17.718 16.081 24.588 5.709 6.967 11.278 11.146 16.76 11.146 5.371 0 10.445-4.276 15.526-11.834 5.004-7.444 9.583-17.409 14.164-27.528l.574-1.267c4.351-9.616 8.723-19.278 13.405-26.548 2.447-3.8 5.05-7.063 7.875-9.348 2.845-2.3 6.022-3.69 9.532-3.497 3.432.188 6.542 1.751 9.378 3.994 2.831 2.24 5.512 5.254 8.108 8.555 2.08 2.647 4.159 5.548 6.24 8.454.515.719 1.03 1.438 1.545 2.153 2.618 3.634 5.26 7.202 8.024 10.364 5.586 6.39 11.333 10.717 17.866 10.866 6.5.149 14.548-3.835 24.745-16.071 20.502-24.603 48.232-71.914 70.961-113.653 11.349-20.841 21.426-40.244 28.697-54.651 3.635-7.205 6.567-13.155 8.604-17.409a231.731 231.731 0 002.352-5.033c.272-.607.475-1.078.611-1.416a8.747 8.747 0 00.159-.424c-.004.018-.017.066-.027.134l3.795.575c-.037.245-.116.48-.16.604-.056.163-.127.348-.208.548-.162.402-.387.923-.667 1.548a233.511 233.511 0 01-2.393 5.122c-2.052 4.285-4.997 10.26-8.64 17.48-7.287 14.44-17.382 33.879-28.752 54.757zm37.054-80.775l-.002.007.002-.007z" fill="#FFC943"/><path fill-rule="evenodd" clip-rule="evenodd" d="M519.16 192.384c-21.53 33.385-47.918 71.384-67.409 90.666-9.797 9.692-17.899 13.324-24.966 12.48-7.034-.84-12.28-6.037-16.565-12.009-2.169-3.022-4.168-6.354-6.075-9.622-.387-.662-.769-1.321-1.148-1.974-1.507-2.599-2.965-5.112-4.45-7.427-1.859-2.898-3.688-5.37-5.584-7.191-1.892-1.816-3.736-2.876-5.626-3.163-1.812-.275-3.713.24-5.799 1.618-2.107 1.392-4.284 3.591-6.537 6.446-4.349 5.51-8.68 13.057-13.169 20.879l-.515.897c-4.625 8.055-9.42 16.321-14.443 22.433-4.936 6.005-10.604 10.569-17.054 9.948-6.339-.611-11.481-5.873-15.76-12.257-4.342-6.478-8.196-14.737-11.754-22.362l-.018-.037c-3.617-7.751-6.889-14.744-10.125-19.057-1.63-2.172-3.046-3.375-4.237-3.803-.97-.348-2.028-.272-3.433.934-1.45 1.243-2.684 3.364-3.705 6.397-1.012 3.005-1.75 6.707-2.341 10.901-.683 4.851-1.145 10.123-1.624 15.581-.36 4.113-.73 8.331-1.21 12.554-1.094 9.611-2.753 19.046-6.288 25.913-1.783 3.463-4.098 6.383-7.161 8.321-3.091 1.955-6.796 2.816-11.166 2.395-4.461-.429-7.978-2.263-10.679-5.15-2.661-2.844-4.454-6.627-5.69-10.875-2.461-8.457-2.867-19.341-3.005-29.907-.023-1.726-.038-3.442-.054-5.141-.08-8.845-.155-17.207-1.203-23.822-.624-3.938-1.565-7.039-2.916-9.178-1.298-2.055-2.93-3.174-5.138-3.387-4.033-.388-8.284 1.076-12.623 3.992-4.333 2.913-8.6 7.173-12.589 12.079-7.978 9.809-14.617 21.913-18.277 30.056l-3.501-1.574c3.754-8.352 10.555-20.766 18.8-30.904 4.122-5.068 8.662-9.64 13.426-12.842 4.757-3.198 9.894-5.132 15.132-4.627 3.588.345 6.199 2.281 8.015 5.158 1.764 2.793 2.808 6.5 3.461 10.626 1.098 6.925 1.175 15.641 1.253 24.473.015 1.68.029 3.364.051 5.04.139 10.635.56 21.005 2.853 28.886 1.141 3.921 2.707 7.079 4.808 9.325 2.062 2.204 4.712 3.612 8.244 3.952 3.623.349 6.457-.371 8.746-1.819 2.317-1.465 4.224-3.773 5.8-6.834 3.184-6.182 4.794-14.985 5.887-24.59.453-3.978.819-8.136 1.182-12.251.493-5.596.979-11.112 1.666-15.985.604-4.287 1.382-8.258 2.503-11.59 1.113-3.305 2.63-6.188 4.844-8.087 2.258-1.937 4.736-2.528 7.23-1.632 2.275.818 4.254 2.773 6.009 5.112 3.498 4.661 6.92 11.994 10.426 19.508l.107.228c3.597 7.708 7.331 15.692 11.482 21.886 4.223 6.3 8.489 10.145 12.94 10.573 4.34.418 8.852-2.641 13.721-8.564 4.781-5.817 9.415-13.784 14.079-21.907l.589-1.027c4.423-7.708 8.882-15.477 13.411-21.216 2.37-3.002 4.84-5.556 7.434-7.27 2.614-1.727 5.467-2.67 8.491-2.211 2.947.448 5.484 2.054 7.709 4.19 2.22 2.132 4.241 4.901 6.156 7.887 1.536 2.394 3.049 5.004 4.561 7.61.373.644.747 1.288 1.121 1.928 1.901 3.259 3.823 6.456 5.878 9.319 4.161 5.798 8.567 9.799 13.902 10.436 5.304.634 12.29-1.978 21.812-11.398 19.148-18.942 45.325-56.589 66.882-90.017 10.759-16.684 20.335-32.264 27.264-43.851 3.466-5.795 6.266-10.586 8.221-14.014.978-1.715 1.74-3.081 2.266-4.058.263-.49.461-.869.595-1.14.108-.217.142-.302.143-.301.001 0-.011.036-.026.095l3.722.937c-.083.33-.279.728-.398.97-.163.329-.384.752-.657 1.259a208.364 208.364 0 01-2.311 4.139c-1.971 3.458-4.786 8.273-8.261 14.082-6.949 11.621-16.547 27.238-27.332 43.962z" fill="#0A53A7" fill-opacity=".05"/><path d="M169.472 291.046a3.81 3.81 0 11-7.621 0 3.81 3.81 0 017.621 0z" fill="#FFC943"/><path fill-rule="evenodd" clip-rule="evenodd" d="M596.614 41.317c-2.618 2.346-5.415 5.22-7.188 7.15l-2.826-2.598c1.826-1.987 4.714-4.956 7.452-7.41 1.365-1.223 2.735-2.357 3.944-3.18.601-.411 1.211-.778 1.794-1.038.527-.235 1.285-.502 2.09-.413 1.337.149 2.057 1.178 2.394 1.827.371.716.61 1.588.777 2.448.339 1.748.481 3.974.521 6.131a88.176 88.176 0 01-.112 6.116 61.554 61.554 0 01-.152 2.225c-.048.527-.107 1.078-.19 1.41l-3.724-.931.003-.018c.009-.066.044-.312.088-.805.048-.536.099-1.25.143-2.082a85.21 85.21 0 00.106-5.843c-.039-2.09-.175-4.053-.451-5.47a8.343 8.343 0 00-.231-.94 10.29 10.29 0 00-.895.554c-1.004.684-2.229 1.69-3.543 2.867zm4.191-3.997c0-.001.006.006.017.023a.192.192 0 01-.017-.023z" fill="#FFC943"/><path d="M15.719 732.788l16.07-26.22c11.194-4.637 31.664-8.923 23.988 11.035-7.248 18.844 7.745 31.472 17.518 36.189 1.093.527 2.298.753 3.512.753h2.479a6.716 6.716 0 016.716 6.716H43.303l-26.577-22.29a4.798 4.798 0 01-1.007-6.183z" fill="url(#paint12_linear)"/><path d="M168.041 757.423v-24.947c9.755-5.758 29.266-13.53 29.266 1.439 0 14.968 16.312 19.35 24.468 19.67h5.277a7.676 7.676 0 017.676 7.676h-62.849a3.838 3.838 0 01-3.838-3.838z" fill="url(#paint13_linear)"/><path d="M23.633 706.568l79.64-271.066 114.664.48-11.994 298.412h-54.214l-8.635-183.749L69.21 729.597l-45.577-23.029z" fill="url(#paint14_linear)"/><path d="M342.675 335.83l-7.676-14.873 10.555-7.676c-.768-19.19 9.595-33.263 14.872-37.901v37.901c0 8.828-3.198 12.634-4.797 13.434l-12.954 9.115z" fill="url(#paint15_linear)"/><path d="M152.209 232.083l-7.196 27.826 29.745 7.196.96-23.988c6.717 3.678 20.822 9.596 23.508 3.838 3.359-7.196-11.994-75.322-44.618-56.612-26.099 14.969-12.474 34.064-2.399 41.74z" fill="url(#paint16_linear)"/><path d="M142.134 259.429l-3.358 9.714 44.138 8.156c.768-14.585-29.745-15.951-40.78-17.87z" fill="#002B87"/><path d="M132.059 268.545c-37.23 59.874-41.1 136.892-38.38 167.917h125.217v-53.254c28.306 24.948 54.693 11.994 69.566 2.879 11.898-7.293 43.658-33.744 58.051-46.057l-14.393-25.428c-67.646 59.97-93.553 8.636-119.461-19.19-20.725-22.261-62.369-27.187-80.6-26.867z" fill="url(#paint17_linear)"/><path d="M161.325 223.086c.384 2.303-5.277 6.717-8.156 8.636-18.231 0-22.549-10.555-25.907-25.428-3.358-14.872 17.751-30.705 31.184-41.259 13.434-10.555 31.185 3.838 34.543 20.15 3.359 16.312-18.231 18.71-31.664 24.468-13.433 5.757-.48 10.554 0 13.433z" fill="url(#paint18_linear)"/><path fill-rule="evenodd" clip-rule="evenodd" d="M264.415 343.425c-9.945-1.362-18.688-5.381-23.713-8.68l.527-.802c4.922 3.232 13.531 7.191 23.316 8.531 9.778 1.34 20.694.061 30.294-7.126l.575.768c-9.856 7.379-21.047 8.672-30.999 7.309zm-16.866 53.881c-10.013.707-19.394-1.431-24.99-3.629l.351-.893c5.48 2.153 14.719 4.261 24.571 3.565 9.845-.696 20.266-4.188 28.187-13.192l.72.634c-8.132 9.244-18.819 12.807-28.839 13.515zm-33.6 278.816c-9.94-51.333-10.496-82.576-9.52-91.825l.954.101c-.961 9.111-.425 40.246 9.508 91.541l-.942.183zm-171.174-22.12c3.957-35.044 11.617-54.878 14.999-60.464l.82.497c-3.278 5.415-10.915 25.091-14.866 60.074l-.953-.107zm25.434 98.92c-14.335-10.174-14.892-22.593-13.294-27.645l.915.29c-1.468 4.64-1.073 16.631 12.934 26.573l-.555.782zm24.519-374.123c10.789-55.623 28.209-88.731 35.62-98.377l.761.584c-7.291 9.49-24.668 42.443-35.44 97.975l-.941-.182zm74.411 377.197c-.651-3.186.204-6.549 1.18-8.673l.872.4c-.923 2.009-1.709 5.159-1.112 8.08.297 1.452.934 2.842 2.061 4.018 1.128 1.176 2.769 2.163 5.113 2.771l-.241.929c-2.486-.645-4.294-1.711-5.564-3.036-1.271-1.326-1.981-2.888-2.309-4.489z" fill="#001858"/><path d="M143.574 551.243l-41.74 99.311s11.515-48.935 12.954-78.681c1.439-29.745 26.867-93.553 26.867-93.553l1.919 72.923z" fill="url(#paint19_linear)"/><path d="M218.897 422.187c-20.15-23.988-23.029-44.298-28.786-59.49l28.786 21.109v38.381z" fill="url(#paint20_linear)"/><path d="M175.718 243.716l-.48 12.953s-.48 1.919-4.318-7.196c-3.838-9.116-.42-13.973-.42-13.973l2 4.5 3.218 3.716z" fill="url(#paint21_linear)"/><path fill-rule="evenodd" clip-rule="evenodd" d="M142.135 477.84l1.919 94.033-.96.02-1.919-94.034.96-.019zm57.671-108.412c8.491 6.499 18.247 13.426 24.64 17.821l-.544.791c-6.401-4.401-16.171-11.339-24.68-17.85-4.253-3.255-8.197-6.408-11.248-9.086-1.525-1.339-2.833-2.564-3.847-3.628-1.004-1.054-1.752-1.981-2.122-2.721l.859-.429c.301.604.962 1.444 1.958 2.488.986 1.035 2.271 2.239 3.785 3.569 3.028 2.658 6.952 5.796 11.199 9.045zm-29.653-133.273c-.133-.815-.083-1.577.253-2.133l.821.497c-.164.271-.245.761-.127 1.481.115.704.411 1.563.905 2.506.989 1.883 2.748 4.053 5.331 5.931l-.565.776c-2.695-1.96-4.554-4.24-5.615-6.262-.53-1.009-.867-1.966-1.003-2.796zm-27.642 143.334c.915-.008 1.874.079 2.693.202l-.142.948a16.797 16.797 0 00-2.543-.191c-.865.008-1.628.106-2.146.317-.257.105-.421.224-.516.342a.554.554 0 00-.119.413c.029.409.371 1.099 1.416 2.144l-.678.678c-1.066-1.065-1.639-1.971-1.696-2.753-.03-.416.088-.783.328-1.082.232-.289.555-.489.903-.63.688-.281 1.597-.381 2.5-.388zm19.191-94.034c.915-.008 1.875.079 2.693.202l-.142.949a16.656 16.656 0 00-2.542-.191c-.866.007-1.629.105-2.147.317-.257.104-.421.223-.516.341a.555.555 0 00-.119.414c.029.409.371 1.098 1.417 2.143l-.679.679c-1.066-1.066-1.639-1.972-1.695-2.753-.03-.416.087-.783.328-1.083.231-.288.554-.489.902-.63.688-.28 1.597-.38 2.5-.388zm85.398 82.52c.915-.008 1.874.078 2.693.201l-.142.949a16.797 16.797 0 00-2.543-.191c-.865.007-1.628.106-2.147.317-.256.104-.42.223-.515.342a.554.554 0 00-.12.413c.03.409.372 1.098 1.417 2.144l-.678.678c-1.066-1.066-1.639-1.971-1.696-2.753-.03-.416.088-.783.328-1.083.232-.288.555-.488.902-.63.689-.28 1.598-.38 2.501-.387zm-90.965-37.879c-.433-.92-.783-1.91-1.029-2.77l.923-.263c.234.819.567 1.76.974 2.624.41.872.88 1.632 1.373 2.12.494.488.921.625 1.312.502.441-.138 1.03-.655 1.687-1.971l.859.429c-.686 1.371-1.429 2.197-2.259 2.458-.881.276-1.665-.133-2.274-.736-.61-.604-1.137-1.481-1.566-2.393zM125.2 348.668a9.824 9.824 0 00-.766-2.069l.858-.429c.333.666.652 1.47.842 2.279.188.799.263 1.651.054 2.385-.218.768-.744 1.383-1.666 1.636-.878.24-2.071.14-3.64-.35l.286-.916c1.502.469 2.484.509 3.101.34.573-.157.863-.502.996-.972.144-.507.107-1.173-.065-1.904zm189.985-6.716a9.802 9.802 0 00-.765-2.069l.858-.43c.332.666.651 1.471.841 2.279.188.799.263 1.652.055 2.385-.219.769-.745 1.383-1.666 1.636-.879.241-2.072.141-3.641-.35l.287-.916c1.501.47 2.483.51 3.1.34.574-.157.863-.502.997-.972.143-.506.106-1.173-.066-1.903zM180.69 389.986a13.848 13.848 0 01-1.434-1.008l.6-.749c.386.309.857.649 1.331.936.48.291.936.511 1.297.606.398.104.482.012.487.005.014-.017.056-.083.065-.262.009-.178-.018-.436-.107-.794l.931-.233c.102.41.149.768.134 1.074-.015.306-.094.594-.279.821-.392.481-1.016.437-1.474.317-.494-.129-1.042-.405-1.551-.713zm-70.426 17.597c-1.199-.348-3.11-.311-4.539-.152l-.106-.954c1.451-.161 3.521-.219 4.913.184.673.196 1.364.55 1.587 1.232.229.696-.114 1.462-.808 2.256l-.722-.632c.649-.742.678-1.144.619-1.325-.065-.196-.322-.429-.944-.609zm77.172 16.129c-.196.151-.464.554-.698 1.491l-.931-.233c.246-.983.578-1.659 1.042-2.017.245-.19.518-.283.802-.286.275-.003.531.079.755.191.44.22.848.603 1.182.952.163.171.318.344.458.5l.021.023c.148.166.274.305.383.414l-.678.679a11.644 11.644 0 01-.419-.452l-.019-.021a17.353 17.353 0 00-.439-.479c-.326-.341-.637-.617-.918-.758a.708.708 0 00-.316-.089.348.348 0 00-.225.085zm96.912-56.612c-.196.151-.464.554-.698 1.491l-.931-.233c.246-.983.578-1.659 1.042-2.017.245-.19.518-.283.802-.286a1.66 1.66 0 01.756.191c.439.22.847.603 1.181.952.163.171.318.344.458.5l.021.023c.148.166.274.305.383.414l-.678.679c-.131-.131-.275-.292-.419-.452l-.019-.021a18.951 18.951 0 00-.439-.48c-.326-.34-.637-.616-.918-.757a.726.726 0 00-.316-.09.357.357 0 00-.225.086zm-149.367 56.126c.116-.541.449-1.02.807-1.378l.679.678c-.282.282-.484.603-.548.901-.058.268-.012.542.263.823.3.306.893.637 1.978.888 1.078.249 2.594.407 4.684.407v.96c-2.131 0-3.726-.161-4.899-.432-1.166-.269-1.964-.657-2.448-1.151-.509-.519-.639-1.124-.516-1.696zm88.78-89.434c-.121-.67-.555-1.465-.938-2.001l.781-.558c.417.584.943 1.515 1.101 2.388.08.438.078.924-.144 1.348-.234.446-.665.734-1.253.852l-.188-.941c.371-.075.521-.223.591-.357.083-.157.111-.397.05-.731zm-39.297-3.067c1.836-2.202 1.221-3.439.989-3.671l.679-.679c.727.728 1.072 2.561-.931 4.965l-.737-.615zm-42.81-27.91c-1.071-2.66-2.451-2.704-2.765-2.61l-.277-.919c.986-.296 2.764.269 3.932 3.171l-.89.358z" fill="#fff"/><path d="M760.068 182.537a4.798 4.798 0 11-9.595 0 4.798 4.798 0 019.595 0zm16.313 0a4.798 4.798 0 11-9.596 0 4.798 4.798 0 019.596 0zm16.312 0a4.798 4.798 0 11-9.596 0 4.798 4.798 0 019.596 0z" fill="#fff"/><path fill-rule="evenodd" clip-rule="evenodd" d="M410.45 723.965c8.814 0 15.96-7.145 15.96-15.96 0-8.814-7.146-15.96-15.96-15.96-8.815 0-15.96 7.146-15.96 15.96 0 8.815 7.145 15.96 15.96 15.96zm0 3.838c10.934 0 19.798-8.864 19.798-19.798 0-10.934-8.864-19.798-19.798-19.798-10.934 0-19.798 8.864-19.798 19.798 0 10.934 8.864 19.798 19.798 19.798z" fill="#1C7FEF"/><path fill-rule="evenodd" clip-rule="evenodd" d="M1008.09 68.174c6.22 0 11.26-5.043 11.26-11.263s-5.04-11.263-11.26-11.263-11.262 5.042-11.262 11.263c0 6.22 5.042 11.263 11.262 11.263zm0 2.878c7.81 0 14.14-6.331 14.14-14.141s-6.33-14.142-14.14-14.142c-7.81 0-14.141 6.332-14.141 14.142s6.331 14.141 14.141 14.141z" fill="#FF9C9C"/><path d="M658.916 137.238c0 6.249-5.065 11.314-11.313 11.314s-11.313-5.065-11.313-11.314c0-6.248 5.065-11.313 11.313-11.313s11.313 5.065 11.313 11.313z" fill="#1C7FEF"/><path d="M1015.03 489.451a7.537 7.537 0 01-7.54 7.542 7.543 7.543 0 01-7.54-7.542 7.544 7.544 0 017.54-7.542c4.17 0 7.54 3.377 7.54 7.542z" fill="#FFC943"/><path d="M240.966 62.172l21.345-12.05 12.05 21.347-21.346 12.05-12.049-21.347zm541.953 516.809l14.978 7.339-7.339 14.978-14.978-7.339 7.339-14.978z" fill="#FF9C9C"/><defs><linearGradient id="paint1_linear" x1="177.127" y1="386.314" x2="177.127" y2="740.569" gradientUnits="userSpaceOnUse"><stop stop-color="#1C7FEF"/><stop offset="1" stop-color="#1C7FEF" stop-opacity="0"/></linearGradient><linearGradient id="paint11_linear" x1="429.937" y1="434.956" x2="485.855" y2="359.83" gradientUnits="userSpaceOnUse"><stop stop-color="#732CDA"/><stop offset="1" stop-color="#C69EFF"/></linearGradient><linearGradient id="paint2_linear" x1="896.801" y1="168.144" x2="896.801" y2="428.176" gradientUnits="userSpaceOnUse"><stop offset=".282" stop-color="#fff"/><stop offset="1" stop-color="#EB9CEB"/></linearGradient><linearGradient id="paint3_linear" x1="771.128" y1="326.466" x2="771.128" y2="462.718" gradientUnits="userSpaceOnUse"><stop stop-color="#fff"/><stop offset="1" stop-color="#fff" stop-opacity="0"/></linearGradient><linearGradient id="paint4_linear" x1="800.68" y1="376.696" x2="847.967" y2="471.271" gradientUnits="userSpaceOnUse"><stop stop-color="#732CDA"/><stop offset="1" stop-color="#C69EFF"/></linearGradient><linearGradient id="paint5_linear" x1="544.24" y1="444.488" x2="544.24" y2="580.74" gradientUnits="userSpaceOnUse"><stop stop-color="#fff" stop-opacity="0"/><stop offset="1" stop-color="#fff"/></linearGradient><linearGradient id="paint6_linear" x1="469.614" y1="423.686" x2="469.614" y2="491.812" gradientUnits="userSpaceOnUse"><stop stop-color="#fff" stop-opacity="0"/><stop offset="1" stop-color="#fff"/></linearGradient><linearGradient id="paint7_linear" x1="570.655" y1="601.913" x2="596.302" y2="522.566" gradientUnits="userSpaceOnUse"><stop stop-color="#732CDA"/><stop offset="1" stop-color="#C69EFF"/></linearGradient><linearGradient id="paint8_linear" x1="584.854" y1="488.552" x2="555.791" y2="686.074" gradientUnits="userSpaceOnUse"><stop stop-color="#F1B9F1" stop-opacity="0"/><stop offset="1" stop-color="#F1B9F1"/></linearGradient><linearGradient id="paint9_linear" x1="368.103" y1="94.261" x2="368.103" y2="668.537" gradientUnits="userSpaceOnUse"><stop stop-color="#FDFEFF"/><stop offset="1" stop-color="#FFECFF"/></linearGradient><linearGradient id="paint10_linear" x1="434.632" y1="402.941" x2="391.947" y2="481.909" gradientUnits="userSpaceOnUse"><stop stop-color="#FBA7FB"/><stop offset="1" stop-color="#FC73FC"/></linearGradient><linearGradient id="paint0_linear" x1="756.599" y1="0" x2="756.599" y2="650.803" gradientUnits="userSpaceOnUse"><stop stop-color="#791CEF" stop-opacity="0"/><stop offset="1" stop-color="#791CEF"/></linearGradient><linearGradient id="paint12_linear" x1="50.507" y1="702.68" x2="50.507" y2="761.261" gradientUnits="userSpaceOnUse"><stop stop-color="#FF7B7B"/><stop offset="1" stop-color="#FF9C9C"/></linearGradient><linearGradient id="paint13_linear" x1="201.385" y1="725.251" x2="201.385" y2="761.261" gradientUnits="userSpaceOnUse"><stop stop-color="#FF7B7B"/><stop offset="1" stop-color="#FF9C9C"/></linearGradient><linearGradient id="paint14_linear" x1="120.785" y1="435.502" x2="121" y2="606.5" gradientUnits="userSpaceOnUse"><stop stop-color="#FFD878"/><stop offset="1" stop-color="#FFC943"/></linearGradient><linearGradient id="paint15_linear" x1="347.713" y1="275.38" x2="347.713" y2="335.83" gradientUnits="userSpaceOnUse"><stop stop-color="#FF9C9C"/><stop offset="1" stop-color="#FF7B7B"/></linearGradient><linearGradient id="paint16_linear" x1="177" y1="203" x2="169.607" y2="267.105" gradientUnits="userSpaceOnUse"><stop stop-color="#FF9C9C"/><stop offset="1" stop-color="#FF7B7B"/></linearGradient><linearGradient id="paint17_linear" x1="219.751" y1="268.531" x2="219.751" y2="436.462" gradientUnits="userSpaceOnUse"><stop stop-color="#0043D5"/><stop offset="1" stop-color="#0037AE"/></linearGradient><linearGradient id="paint18_linear" x1="160.122" y1="161.428" x2="160.122" y2="231.722" gradientUnits="userSpaceOnUse"><stop stop-color="#1E3D91"/><stop offset="1" stop-color="#001858"/></linearGradient><linearGradient id="paint19_linear" x1="148" y1="474.5" x2="102" y2="632.5" gradientUnits="userSpaceOnUse"><stop stop-color="#FAB814"/><stop offset="1" stop-color="#FAB814" stop-opacity="0"/></linearGradient><linearGradient id="paint20_linear" x1="219" y1="354.5" x2="190" y2="418.5" gradientUnits="userSpaceOnUse"><stop stop-color="#002B87"/><stop offset="1" stop-color="#002B87" stop-opacity="0"/></linearGradient><linearGradient id="paint21_linear" x1="173.5" y1="235.5" x2="172" y2="260" gradientUnits="userSpaceOnUse"><stop stop-color="#E27070"/><stop offset="1" stop-color="#E27070" stop-opacity="0"/></linearGradient></defs></svg>